<mxfile host="Electron" modified="2023-06-30T07:44:33.774Z" agent="Mozilla/5.0 (Windows NT 10.0; Win64; x64) AppleWebKit/537.36 (KHTML, like Gecko) draw.io/21.2.8 Chrome/112.0.5615.165 Electron/24.2.0 Safari/537.36" etag="gBZic9LYok-U01rrkagl" version="21.2.8" type="device">
  <diagram name="Seite-1" id="-UPBpdnMXG-P8x8AO1cq">
    <mxGraphModel dx="2387" dy="1008" grid="1" gridSize="10" guides="1" tooltips="1" connect="1" arrows="1" fold="1" page="1" pageScale="1" pageWidth="827" pageHeight="1169" math="0" shadow="0">
      <root>
        <mxCell id="0" />
        <mxCell id="1" parent="0" />
        <mxCell id="RzSK2eXyLgCV4vEOFlBl-2" value="main" style="rounded=1;fillColor=#10739E;strokeColor=none;shadow=1;gradientColor=none;fontStyle=1;fontColor=#FFFFFF;fontSize=14;" vertex="1" parent="1">
          <mxGeometry x="290" y="120" width="200" height="60" as="geometry" />
        </mxCell>
        <mxCell id="RzSK2eXyLgCV4vEOFlBl-3" value="app" style="rounded=1;fillColor=#10739E;strokeColor=none;shadow=1;gradientColor=none;fontStyle=1;fontColor=#FFFFFF;fontSize=14;" vertex="1" parent="1">
          <mxGeometry x="290" y="240" width="200" height="60" as="geometry" />
        </mxCell>
        <mxCell id="RzSK2eXyLgCV4vEOFlBl-4" value="" style="edgeStyle=elbowEdgeStyle;elbow=vertical;strokeWidth=4;endArrow=block;endFill=1;fontStyle=1;strokeColor=#23445D;exitX=0.5;exitY=1;exitDx=0;exitDy=0;entryX=0.5;entryY=0;entryDx=0;entryDy=0;" edge="1" parent="1" source="RzSK2eXyLgCV4vEOFlBl-2" target="RzSK2eXyLgCV4vEOFlBl-3">
          <mxGeometry x="40" y="186" width="100" height="100" as="geometry">
            <mxPoint x="830" y="300" as="sourcePoint" />
            <mxPoint x="977" y="530" as="targetPoint" />
            <Array as="points">
              <mxPoint x="410" y="220" />
              <mxPoint x="1130" y="430" />
              <mxPoint x="1940" y="430" />
              <mxPoint x="1220" y="440" />
              <mxPoint x="1000" y="449" />
            </Array>
          </mxGeometry>
        </mxCell>
        <mxCell id="RzSK2eXyLgCV4vEOFlBl-5" value="header" style="rounded=1;fillColor=#10739E;strokeColor=none;shadow=1;gradientColor=none;fontStyle=1;fontColor=#FFFFFF;fontSize=14;" vertex="1" parent="1">
          <mxGeometry x="30" y="370" width="200" height="60" as="geometry" />
        </mxCell>
        <mxCell id="RzSK2eXyLgCV4vEOFlBl-6" value="routes" style="rounded=1;fillColor=#10739E;strokeColor=none;shadow=1;gradientColor=none;fontStyle=1;fontColor=#FFFFFF;fontSize=14;" vertex="1" parent="1">
          <mxGeometry x="290" y="370" width="200" height="60" as="geometry" />
        </mxCell>
        <mxCell id="RzSK2eXyLgCV4vEOFlBl-7" value="footer" style="rounded=1;fillColor=#10739E;strokeColor=none;shadow=1;gradientColor=none;fontStyle=1;fontColor=#FFFFFF;fontSize=14;" vertex="1" parent="1">
          <mxGeometry x="560" y="370" width="200" height="60" as="geometry" />
        </mxCell>
        <mxCell id="RzSK2eXyLgCV4vEOFlBl-8" value="/" style="rounded=1;fillColor=#10739E;strokeColor=none;shadow=1;gradientColor=none;fontStyle=1;fontColor=#FFFFFF;fontSize=14;" vertex="1" parent="1">
          <mxGeometry x="-390" y="521" width="200" height="60" as="geometry" />
        </mxCell>
        <mxCell id="RzSK2eXyLgCV4vEOFlBl-9" value="/about" style="rounded=1;fillColor=#10739E;strokeColor=none;shadow=1;gradientColor=none;fontStyle=1;fontColor=#FFFFFF;fontSize=14;" vertex="1" parent="1">
          <mxGeometry x="-120" y="525" width="200" height="60" as="geometry" />
        </mxCell>
        <mxCell id="RzSK2eXyLgCV4vEOFlBl-10" value="/clan-tracking" style="rounded=1;fillColor=#10739E;strokeColor=none;shadow=1;gradientColor=none;fontStyle=1;fontColor=#FFFFFF;fontSize=14;" vertex="1" parent="1">
          <mxGeometry x="150" y="525" width="200" height="60" as="geometry" />
        </mxCell>
        <mxCell id="RzSK2eXyLgCV4vEOFlBl-11" value="/signup" style="rounded=1;fillColor=#10739E;strokeColor=none;shadow=1;gradientColor=none;fontStyle=1;fontColor=#FFFFFF;fontSize=14;" vertex="1" parent="1">
          <mxGeometry x="417" y="525" width="200" height="60" as="geometry" />
        </mxCell>
        <mxCell id="RzSK2eXyLgCV4vEOFlBl-12" value="/member-tracking" style="rounded=1;fillColor=#10739E;strokeColor=none;shadow=1;gradientColor=none;fontStyle=1;fontColor=#FFFFFF;fontSize=14;" vertex="1" parent="1">
          <mxGeometry x="680" y="525" width="200" height="60" as="geometry" />
        </mxCell>
        <mxCell id="RzSK2eXyLgCV4vEOFlBl-13" value="*" style="rounded=1;fillColor=#10739E;strokeColor=none;shadow=1;gradientColor=none;fontStyle=1;fontColor=#FFFFFF;fontSize=14;" vertex="1" parent="1">
          <mxGeometry x="940" y="525" width="200" height="60" as="geometry" />
        </mxCell>
        <mxCell id="RzSK2eXyLgCV4vEOFlBl-14" value="" style="edgeStyle=elbowEdgeStyle;elbow=vertical;strokeWidth=4;endArrow=block;endFill=1;fontStyle=1;strokeColor=#23445D;exitX=0.5;exitY=1;exitDx=0;exitDy=0;entryX=0.5;entryY=0;entryDx=0;entryDy=0;" edge="1" parent="1" source="RzSK2eXyLgCV4vEOFlBl-3" target="RzSK2eXyLgCV4vEOFlBl-6">
          <mxGeometry x="39.29" y="326" width="100" height="100" as="geometry">
            <mxPoint x="389.29" y="320" as="sourcePoint" />
            <mxPoint x="389.29" y="380" as="targetPoint" />
            <Array as="points">
              <mxPoint x="409.29" y="360" />
              <mxPoint x="1129.29" y="570" />
              <mxPoint x="1939.29" y="570" />
              <mxPoint x="1219.29" y="580" />
              <mxPoint x="999.29" y="589" />
            </Array>
          </mxGeometry>
        </mxCell>
        <mxCell id="RzSK2eXyLgCV4vEOFlBl-15" value="" style="edgeStyle=elbowEdgeStyle;elbow=vertical;strokeWidth=4;endArrow=block;endFill=1;fontStyle=1;strokeColor=#23445D;exitX=0.5;exitY=1;exitDx=0;exitDy=0;entryX=0.5;entryY=0;entryDx=0;entryDy=0;" edge="1" parent="1" source="RzSK2eXyLgCV4vEOFlBl-3" target="RzSK2eXyLgCV4vEOFlBl-5">
          <mxGeometry x="-50" y="296" width="100" height="100" as="geometry">
            <mxPoint x="300" y="290" as="sourcePoint" />
            <mxPoint x="300" y="350" as="targetPoint" />
            <Array as="points">
              <mxPoint x="320" y="330" />
              <mxPoint x="1040" y="540" />
              <mxPoint x="1850" y="540" />
              <mxPoint x="1130" y="550" />
              <mxPoint x="910" y="559" />
            </Array>
          </mxGeometry>
        </mxCell>
        <mxCell id="RzSK2eXyLgCV4vEOFlBl-16" value="" style="edgeStyle=elbowEdgeStyle;elbow=vertical;strokeWidth=4;endArrow=block;endFill=1;fontStyle=1;strokeColor=#23445D;exitX=0.5;exitY=1;exitDx=0;exitDy=0;entryX=0.5;entryY=0;entryDx=0;entryDy=0;" edge="1" parent="1" target="RzSK2eXyLgCV4vEOFlBl-7">
          <mxGeometry x="39.29" y="306" width="100" height="100" as="geometry">
            <mxPoint x="389.29" y="300" as="sourcePoint" />
            <mxPoint x="389.29" y="360" as="targetPoint" />
            <Array as="points">
              <mxPoint x="500" y="330" />
              <mxPoint x="409.29" y="340" />
              <mxPoint x="1129.29" y="550" />
              <mxPoint x="1939.29" y="550" />
              <mxPoint x="1219.29" y="560" />
              <mxPoint x="999.29" y="569" />
            </Array>
          </mxGeometry>
        </mxCell>
        <mxCell id="RzSK2eXyLgCV4vEOFlBl-20" value="" style="edgeStyle=elbowEdgeStyle;elbow=vertical;strokeWidth=4;endArrow=block;endFill=1;fontStyle=1;strokeColor=#23445D;entryX=0.5;entryY=0;entryDx=0;entryDy=0;" edge="1" parent="1" target="RzSK2eXyLgCV4vEOFlBl-10">
          <mxGeometry x="-100.71000000000001" y="471" width="100" height="100" as="geometry">
            <mxPoint x="390" y="440" as="sourcePoint" />
            <mxPoint x="250" y="525" as="targetPoint" />
            <Array as="points">
              <mxPoint x="269.29" y="505" />
              <mxPoint x="989.29" y="715" />
              <mxPoint x="1799.29" y="715" />
              <mxPoint x="1079.29" y="725" />
              <mxPoint x="859.29" y="734" />
            </Array>
          </mxGeometry>
        </mxCell>
        <mxCell id="RzSK2eXyLgCV4vEOFlBl-21" value="" style="edgeStyle=elbowEdgeStyle;elbow=vertical;strokeWidth=4;endArrow=block;endFill=1;fontStyle=1;strokeColor=#23445D;exitX=0.5;exitY=1;exitDx=0;exitDy=0;entryX=0.5;entryY=0;entryDx=0;entryDy=0;" edge="1" parent="1" source="RzSK2eXyLgCV4vEOFlBl-6" target="RzSK2eXyLgCV4vEOFlBl-11">
          <mxGeometry x="166.29" y="471" width="100" height="100" as="geometry">
            <mxPoint x="516.29" y="465" as="sourcePoint" />
            <mxPoint x="516.29" y="525" as="targetPoint" />
            <Array as="points">
              <mxPoint x="536.29" y="505" />
              <mxPoint x="1256.29" y="715" />
              <mxPoint x="2066.29" y="715" />
              <mxPoint x="1346.29" y="725" />
              <mxPoint x="1126.29" y="734" />
            </Array>
          </mxGeometry>
        </mxCell>
        <mxCell id="RzSK2eXyLgCV4vEOFlBl-22" value="" style="edgeStyle=elbowEdgeStyle;elbow=vertical;strokeWidth=4;endArrow=block;endFill=1;fontStyle=1;strokeColor=#23445D;entryX=0.5;entryY=0;entryDx=0;entryDy=0;" edge="1" parent="1" target="RzSK2eXyLgCV4vEOFlBl-9">
          <mxGeometry x="-370.71" y="471" width="100" height="100" as="geometry">
            <mxPoint x="390" y="440" as="sourcePoint" />
            <mxPoint x="-20.70999999999998" y="525" as="targetPoint" />
            <Array as="points">
              <mxPoint x="-0.7099999999999795" y="505" />
              <mxPoint x="719.29" y="715" />
              <mxPoint x="1529.29" y="715" />
              <mxPoint x="809.29" y="725" />
              <mxPoint x="589.29" y="734" />
            </Array>
          </mxGeometry>
        </mxCell>
        <mxCell id="RzSK2eXyLgCV4vEOFlBl-23" value="" style="edgeStyle=elbowEdgeStyle;elbow=vertical;strokeWidth=4;endArrow=block;endFill=1;fontStyle=1;strokeColor=#23445D;exitX=0.5;exitY=1;exitDx=0;exitDy=0;entryX=0.5;entryY=0;entryDx=0;entryDy=0;" edge="1" parent="1" source="RzSK2eXyLgCV4vEOFlBl-6" target="RzSK2eXyLgCV4vEOFlBl-8">
          <mxGeometry x="-641" y="467" width="100" height="100" as="geometry">
            <mxPoint x="-291" y="461" as="sourcePoint" />
            <mxPoint x="-291" y="521" as="targetPoint" />
            <Array as="points">
              <mxPoint x="-271" y="501" />
              <mxPoint x="449" y="711" />
              <mxPoint x="1259" y="711" />
              <mxPoint x="539" y="721" />
              <mxPoint x="319" y="730" />
            </Array>
          </mxGeometry>
        </mxCell>
        <mxCell id="RzSK2eXyLgCV4vEOFlBl-24" value="" style="edgeStyle=elbowEdgeStyle;elbow=vertical;strokeWidth=4;endArrow=block;endFill=1;fontStyle=1;strokeColor=#23445D;exitX=0.5;exitY=1;exitDx=0;exitDy=0;entryX=0.5;entryY=0;entryDx=0;entryDy=0;" edge="1" parent="1" source="RzSK2eXyLgCV4vEOFlBl-6" target="RzSK2eXyLgCV4vEOFlBl-12">
          <mxGeometry x="430" y="476" width="100" height="100" as="geometry">
            <mxPoint x="780" y="470" as="sourcePoint" />
            <mxPoint x="780" y="530" as="targetPoint" />
            <Array as="points">
              <mxPoint x="800" y="510" />
              <mxPoint x="1520" y="720" />
              <mxPoint x="2330" y="720" />
              <mxPoint x="1610" y="730" />
              <mxPoint x="1390" y="739" />
            </Array>
          </mxGeometry>
        </mxCell>
        <mxCell id="RzSK2eXyLgCV4vEOFlBl-25" value="" style="edgeStyle=elbowEdgeStyle;elbow=vertical;strokeWidth=4;endArrow=block;endFill=1;fontStyle=1;strokeColor=#23445D;entryX=0.5;entryY=0;entryDx=0;entryDy=0;exitX=0.5;exitY=1;exitDx=0;exitDy=0;" edge="1" parent="1" source="RzSK2eXyLgCV4vEOFlBl-6" target="RzSK2eXyLgCV4vEOFlBl-13">
          <mxGeometry x="689" y="471" width="100" height="100" as="geometry">
            <mxPoint x="1039" y="465" as="sourcePoint" />
            <mxPoint x="1039" y="525" as="targetPoint" />
            <Array as="points">
              <mxPoint x="1059" y="505" />
              <mxPoint x="1779" y="715" />
              <mxPoint x="2589" y="715" />
              <mxPoint x="1869" y="725" />
              <mxPoint x="1649" y="734" />
            </Array>
          </mxGeometry>
        </mxCell>
        <mxCell id="RzSK2eXyLgCV4vEOFlBl-26" value="" style="shape=image;verticalLabelPosition=bottom;labelBackgroundColor=default;verticalAlign=top;aspect=fixed;imageAspect=0;image=data:image/png,iVBORw0KGgoAAAANSUhEUgAAAS4AAACnCAYAAACviLHnAABBn0lEQVR4Xu1dB5QUVdauqs4zxBlAwCEaBhOCgbjqIsYVTLsgurK6IrqKgoqBVX9kQXaNqyKYEAOGJayuiq4Jw6qgYEIlDZIZAYkzDDOdu/7vvu5XVDfd09VhoJVb58zpmemq9+776tWtm6+i8MEIMAKMACPACDACjAAjwAgwAowAI8AIMAKMACPACDACjAAjwAgwAowAI8AIMAKMACPACDACjAAjwAgwAowAI8AIMAKMACPACDACjAAjwAgwAowAI8AIMAKMACPACDACjAAjwAgwAowAI8AIMAKMACPACDACjAAjwAgwAowAI8AIMAKMACPACDACjAAjwAgwAowAI8AIMAKMACPACDACjAAjwAgwAowAI8AIMAKMACPACDACjAAjwAgwAowAI8AIMAKMACPACDACjAAjwAgwAowAI8AIMAKMACPACDACjAAjwAgwAowAI8AIMAKMACPACDACjAAjwAgwAowAI8AIMAKMACPACDACjAAjwAgwAowAI8AIMAKMACPACDACjAAjwAgwAowAI8AIMAKMACPACDACjAAjwAgkIqAWMiRhXde+qAud9O6u0PmVgUjHrWH7waA30toeWXWIXVnRs5njg6Pc2rJWmrZ9f61jSyRy0MJdod4La/X+ywNK1+/84V7tFPXHDYpefnKR+kqvYu2Dgc0dr+5PGvcXNjwvI9BQCBQs41pYG+g7dEPog4qgw6U47MnXHwyI/w9upLx7zUG2u/sV2T9rKKASx51XGzzlue2h66dWa78X39mciqKlmD3kV2aXaYMHNXPO3lf08TyMwK8ZgYJkXLOrAkMHrdenK06n4olR6NWjt4H+lr/H3ZhgSCl3BOvubm2/7OymjjcaqWqUq+XxIAnwE2+4/z83h/8+p1Y7ISVDTaBT0BwIKSObhZ58qMx9rU1VI3kki4diBA44BAqOcYFp/WnQBvV5YgrigQ8rituuK75IclL3YmShiFJu9/v/1sb250FNnDPzxSQ+qgv1H7Mp8vyCOv1gxQHpCodb0xVVV/dmpMSWEqQvQWcwooxtHrp3/MGuMQfcTuMFMwJ5RKCgGNc6PdKpw+LgamIMcQwJKiHUwc9g21oPaavR5pDWbk6d3l3RXIJBEAMhxhZ/TUjpWaT/9Hx72xldHLal2WK2W9cb317pe2JSlf2SRAnLmC/KLH3HumzfdnFHFh5k136q8EWOnVSt/pFo9NhMUiIkw3mdld59ix1fZEsTX8cIMAIFhMDw9d7/KMt1nX48FdHPgav9n1ZGwu0SyQRDaQQ7U++RG7zTlMU+ca75Onm98oNfn7LVf302y4SUdUb58jqvsjRGDz7lPPQ/Ghs0vww6+oIed+Icfl13jd3k/afyQ1Csx7SmBdnQw9cwAoxAgSEAaauj8r0/jvmAadSCIRSnI3UHzpm23f8XMwMzGAwxNDCZnqsC65YHw13SjUXfg+G4wXCeIIZjZoiC8RDDAqO8Z6N3LBhqqZXxwFyfN5gf0YNx36wKnGvlWj6HEWAEChgBMJ5RccwG0sx8b+CETEgmKQzS1WjJAOPGEwzDr0OKOrm+MRHe0Pa05d6VxGjcKyJxjJQYzhXraqfjnJaZ0AUG1z6RpsFr/HMzGYPPZQQYgQJEAA/y54aqF5WQ1mZLJiSrzlAxv1IWhw3GI5kQMRAwt5uSjY3rukHKC5vpENfFpCyohL2ypQkq5SyzKktSGyTFkmzH4+sYAUZgPyNABvA4NQ+MAhLYFbmSNaPafzlJWXEMI6aqQX17wjz+e97Q75OqmmB+YDov5spkIOmdYlY96Xcwwh65rpGvZwQYgf2EACSdY6QBW6h3YBYIQO2eD3LIrgUpyicN44bRHsyR1DXYsxojBONKsypnNuyD+V2UDzoE44OUZYyNdYI5X5mPsXkMRuBAQyBVrPc+xWFlbfgIxWYXMVvRI6h09Ngr80EEQiGWf13uaTnQGfhcQXwVBa+KoFasfJbX2f/k1cGKQRv0qRTsSgeFVogAV0S7z+us9R3S1DUzH3SUqOqOnh5tmxE8C1q+q4v0zMfYPAYjcKAhUBCMa11QP1IAD2pkpHxTVa3O181AFH3NrE6uPmObBh5REEclmRfFVy0IOtrIuDGazxdSldMU37J1RznbI9Zqfr5ooHF6OsNv06dknIhH65DP8XksRuBAQaAgGNfPoUh7ybSIqXQJen9yNUDKDiLWb5jWNnKtEggI5pUsjWigOzDvtXL38R1UbUO+N0FbmxInRWJ+D6UR5XseHo8R+LUjUBAPTVVIaUVAS0mozOPe2FDADyt1PT62ZeRxUhtJ8pFpRfRJauK0jo5BkNC8DTF/S1eUGUqGuSIAFZkPRoARyBiBgmBcoNpIPUqaQJ3xslJfAO/ewPE7bNfIXELBLKEy6irShqAm3lHpf0ReDWkI3+Tv8ET0WmKY5iOkKClKX+RvXh6JEfi1IVAojEvUfpD2LfwaqwWRX7gX+UO9+q0Mv+GxO1DVK5rALSUgkesINjV1t3sQouYfov8jQdtwF+STkoZeZz5p5bEYgUJEoCAYVzO7skUyEPqs9Pra5hssRLu36fZj6HPpPRQSF37KFW+VEg4aDIyY1/ht9hsQqjAi3zR4NVWkL5mkSh3iFoQuPhgBRiATBAqCcRXpSo0kOiaN5FV9ogDXgWtC3yh2VJMgxhGTo8C0aj4v9xw2pZV+K3kbjQMldYZt1CZDreyXCZjpzt0dVEulikrrRKXUBrPlpaOFv2cEfskIFATjau9Q48rOLHd4WltJrrYK/BVrA+8t8DtaGypaVNLyfXq4+zDEV20b0dJ1P4r8zY6L8wLz6rc69KHIM8zTscqU5C1sa06tLl/1wvJEIg/DCPwiECgIxtXEoW2JM1rD3lSHKjD5QBB5iXcg0LQXSTqGiob6XjM7OXuhDvzPcg5UJr14sCchSBUSWv8V/mVUniYftGwJ63HleVBfbG0+xuUxGIEDDYGCYFyHFtuWK2GTqqZqyo6w3jTXmwFV76wRm5S746qRIoZrdjv1vG4u+3fm8ckQ/0xH55nlWjQSQjK5ioinaOjawJxcaaHrv/UpcZUp2ti0vGQH5IM2HoMR+CUhUBCMq8SmblP0aJwAhSVQ+g/SgMpzARIqXsd+qxCpHkvlEWoi7FhT2ihXo2nFG8nGpgj71w9xHaPEmnCIcyg1qNZ+uqj3lcNBdraKUBRuQQuW28Gt/JjDkHwpI3DAIpBXI3i2KCK9p6rcGVYqMICsLY80oEOzHY9Uuz+sCfzXA6Yl4rOgepIENbxp6JkRLT1P1TcuchsXo1LEOWesirzldqriWvoctlF5HMzwrTLNllVEfWUo0k6JlZcW84cDykE2taAkrg3eYMmmiFBnicMmlvVWg4pqcyi6lRARvYnTVtXKrm2HDTFvqVvZ7ge+7teHQEEwLqT3BFGpYUGFX4kmHeOxWeSNZFXyRdd19a6NgYfm+JxHiMcPzSzooKj4QS0dM4bXBigv0oWH0K3if3pEpSBTHQ8kdQWih1JzasrO4U0Cr0+tc59H1wpmijr4/Vd4v4fk1J4ks0y3AiTIw4kVGHY2TVWgIq/MdJyGPH/qjsj48dXOEUnbrMkGIObP2L0yaDIH1+oIMcEP6qpVnlkUfuHCEsdLUM+XNCT9PPaBg0DBNMtAKeQJY3a57zSgR3UG5Wh3SvpIqtqqR5qv80babgzq7VbVhY/dGFYOWRPUjpxTq5xA0pZgErEHTab2CFsaVFEp9Yh+iOYjggs0cLyYEm0KFhXjwRu59cxi9a1mmlZ9TLE6v4VTW3+oqm8odtt3QbpIydAQ1PrY+Gr3Neb17T7K1QhMsLZQttvYn/wPj69xjjKvOVfaDEaNWLmBHn3h/e3sl1HFjlzH5esPbAQKQuKiW4Cu1P9VqpQ7jWRrSDkUinAwkp1/Qj16MKj2y9E5B6VgeoM5HeFa4j82Kk2Bw0CBUbRoNLxgOPiVYrVEKk+stZl4gETQaXTJgpFpe5iW0SnIpsW1GxMxX6aqFRWKp2VFrXK5GKRaGSU+QxDW0MYRJZ+XdSpSlnbzaPO6FWmfd/Boa1qqWjVmCZ5e4futMS9oGVikflJITCv2GBgpTuYE9EwfEamey1xQcT2yFeYElB5zKvzLUP/sItgZZ2U6Lp9feAjEPO70dNGTokN72ic9QwuGcR3mRjAm7D4eSEDiobE7lWvWBl7wBiKlc4PaUYZkFGMiHmJO5sQgSpo25RwaLcHC4FAmxiOvScyJlLY18/+F5GFuLRbbN4b0FhtXMkAUkT9CqcPPbiXa3RrrQeNFZXCxOneu4hYJ1VIK7OuOzM2LqzK/e9mQcBMlzYymwQtF1DUz2/QkdmhMPmhDaCYk0OPGt/Fwf8mMgC2sk1EZ+FkIEJeX2yN1oGy36vVXIUOlB8KMGtyuWRCMi9qPfVYT6isbrQrJBAxjTsApwgc8Jm1OlKOJSUFmCUaqdjLnUNxiyftFXiJUxJjn0tLtR0iGV6qUxHASmV9MlUyUTGQDW5rDF5PoZvlR4st84FqotWVYd1sY+wspen4vL3NXe3DjqCaRW2PkS8ZmVuHp9SF/hAi8PKQf/61X6weVvas31iNT3qvo/bQr43fab0OM3RYE//7T0v3gkwoOAdSTKyMBA061Irzoirw2W6uAojcCob9exgXO3Op/u0L9pu/Qby5bEjqBJCpiVvIwKpUS00hIuRbSFDEvSDTiOxve8Ih0pzc8HeJ/CGm4pzQy8egi2zfFTq3KqSv+Uqd9m8cubEqJSdx0ofFQekO6Z1cg3KhWDUOuU2zbApE2gyojsxVIC2ZGJVQiH4zQxOQwvzjw6EvpTTaMNUto8gGeVOu+atLiwFVo6vHtWY2VGeeV2l8GE9vfXkaBAa1LdujuZAtVXNKy6KUMn5oX6Hy0nOswbWNg9PgdyvVkc5T3RqiQuIcjNisP4pz/oPbZmgzH59MLAwFiWHsOSNn76tinEhf0Yef71cGzp+/UR7ZaEjxVqH8xm1QiwyLGRFKOOEhyApMqd4T1w522BeWK74vjSlzzOhTZlrXXFN8jNfrYB7apfzK8YTh/ZLPIc2PaevYY+3NEFH0QBw6ojMxR7FGihKFe92194RD7+XjUd26q2d1lqU/pOT/iPB11trpWBG12LxFEDBXnumO2NvPDq7icZPfpPmer0n3E5sC98Kx+OKi5+lj/po4PYOivypHkbC4X25CYlunIejeCIa3DOCPRP+DlHuji5AHjN290Yma3rA1MxTnxEmk2lPM1+wMBh1nAiHnwC8bhlzMglHdILcGowavsurNXz8NYJ+rEjjyQSOZTsjM1jE2WekOlapI0ktWpx2LOhCcMAJ1+dmKjWXhDxyXOAzodpAZSh2vYcu7Zq8tQwlqN1mmx5rWxhrN3ZNq/Mdf1wqv4pKRVNvUYsrbu/VzHpevRtORo2UWJxqY1iznQhYnayeVjDh5j3yKAZ3Oh7NAu9jDuJfZ92b6gokEj54l5IOL86uMrvFtGbHU+CI9ckbBjJfM7IBUHoQZ+MuqaD0gvvfsV2T/C23stPBaIkdhzECO7eU1wBkXHS7WMouMfbG0/Bx673fkG8N527qupiQYdsm78mO3aXbhZrc1zUVwa2a5Qs35eD4/tCyUU2dOkA2EBWOdOEZ0fa94h7HKkPsWcpFTFYkyV++5WSwNbwPCvy2fCeb4xsToeBfZOOUiVtrI9Uh32w2tbA5daHYfPKygEQg1d+DPVahuMcVGL+UZL/DXDfnY+QQzLbL8yVDowq56O4NZ/uHdP/L5D6MTl5R7PlNLgNSKUISZwVgRs9LaOS06Wi3l6W+AWeBw70N8SwCGNg28MaOb8b0PcXurU82aZdqFsuCHmwIN307rQM6nmg1p8F6mXkrH2dCvrvi/3tKk8yt7m5Zb+4eg+9K2ogU+qsZln050BAxvxs/1R4LibWpmRJNcQ6zKNmUwtzFpVTKT1shbOJ6j2WeJmn+fTzmrgdfHwDYNAsiyKfaIq5t3GRR5CepAHbFBPI2O2PIzNStJWxK+Mba7ef0kr+9N4E69YgH/9NXYipdUoG/EgyxgreC0+qAqcj68fNWNPhQEhkUwQc8RCIbxgAPeWu6+d0TA3SYwKpvgfiMhLYJs6Sk4za7d2diw2Ka6VGdbSAY6HbuQVleu/wBN+zqU6SWzbjJ+n6QfnHfz69sDQET/r/xB2ApJKY4fHQXFlLmXYz8rU+7Z6J4OJHwfM4soA5XG5yZhU3uJyKOOAMiSAndGWjRg6pOoTIFV6cqn1T/bTal1vvjEYaVUb0otol5U6tR2xtKOqPGKUdij00Cyt0yPFG73h1pQmFaNlG9GCygG79mUpI2rGsl3XW6BoQfPtgUhz0KIX29VdbR3aVkq1g3aQSyHLeMEHTh2nktN4abGVJ+SVcc33BvqWLQ1+Jgr2JcoGpBphYVAXbrq4hesZymEbn4RMygUEY1iGzS3inkhSm75LpXifOMY1eVNwvKJFGSMZvr0BjN1aGQmV8ifLq8/yxAkH2y6dUwFJSaqoMMAPqvTPwMP3pjmo9PXtocviIvOBwalNbW8lTos1E8334Popb1cHz71zs/d5GPdtieEhFbrH1WV5YAmkr2Fo+pFSystyWXRZMiZlJTfR8pTd1cAns3RnT7ORHsnnDpQxaoxBMmpSQszqq7rQie9WRQZ3rfCOEJjRIRk/VHRFQSwKAoNPa6LMPL+l80Uw/VWWic3gRLxQDv2gKnTOOzXK0JIl/uPFCwhpXSJLQ9ARrbKLmKedsHs+MaCJ7d89ip3fZDCF5VOBi+27umD3N6v0IUdWeG8ELlqUlliQNqVj4VaX20J+dHSfPqCFY3oft+0b7F2Kx0p6QIM6f1cw0hglqKpxk6iSr/+B7YqocScM9OSUh3d9zs7gQJy7HufQy4MOuifuXi717XYexzbLi0hzYt7EOjxM1yAR+THZozBRwnr5IGXouS1cMwFO9A7Wc7y81XfNJVtdj5lVykXltqOQ6yYkDWyS7l2WoaKpqfJDe92rV3QpsqT64vpy2mQVvkjXdTu9R7Rq5ll9iF1Zjuj992BP+zwdffQ9DNkPIa/vBrO3cEpp4DrEJU2h76nRhm2JPySrropNi+cSaqKTbGD1zUEq4Ts/7z7/0Sr7xLkR92Hm9COBKx6EkU0Dj99f5r4hn23csKYpSPm5VjIVmmuI2/vWjI5FA6xgYuWcRzYH7hxV5ZgQF+AaCiqVR9jaZRIOAgn3j3duDk2nh1KGWpjDOOJCUaQciRfHaY7IkjvaO/6C+/yZFXrTnYOH9JyHN4cfgsniMEmHvKZeeqK0rAAtV4KWT9PNY+V77Dn11ergIOAysyIMhglGlS59y0iLgxY0rY064vIS5xOJEiFeqDaYK+L2MtGTOLZ5vfH19SLK7LLwlciWmGZlHVbOsfSgpxuIHuJhm+x7My3YM9CE9V7k5DW+pKX7RStMi+Y6rdT5b5FGI8EBg3pmS/BaScfYypDReZr+5w2ElGfaOX6Tjk4wrC5QVeZ2WR5aTs4CxFJd9rqzeQ8kUw+BMXxcv1X6fHg+d9JmTDfWrW2dd5LKKw3rdD5UvclQYUvo9y/qQr0Vc5MgCtEotY1Kx7ToWjrnvNaNZ79b7u4y7aDAddIhYLieYTObVOO+BnXC3iCpIx2tGXyfTFXM28uN6Kjz+ZslowcqRvSGpzmAb2vcw/+h+/iL61WPYFryJSljz+QQ9GDRw0SfwukDSWye6j4K9/lTSD0T6UFPN1+q70m9Bx0fDNigv/mZ5jKYlijLFDtkWIl0OElmSn8T3bjucJRe+gTPz33Z0iGvg9e93flrAguBy0zYlBVqCJOMaZnpo2tlTJ0b9MAePQVjfE4YJ9Aj+IR0IMWlcplOlPjLMUlbErbtWAhRrms0X58z46KmEuN3aDdQ6Rc6DEkL3rf5nZU+aMI6JlMPH1IGtg5pEhZvITnepGp1BNlBEGJw8qwa5XjzIgYWRz5J13UaIRW/7VIRXDbL7+wvVInElYt4MjuigD3NYJ97Exv77/UBTSrh7DLtirha9VBdn9nsFwwW6svFNJ5xIA5tUKlDBGZaPejNB5VwyvJyx+Ew4i+QXkhxPehFZdczr9vgq7dMj9W5Yucle5Bz3iNmGlZrdqPOmtlIb7cgiVNIBeyam3APT5bqoHwQyb7pDfqFVAusvjnNEfgGUnjQ54czAN+ZY9PcLhsi9923X7w28H42YTMU5gKTSCXoOJUYkByb1iNKKMVoIXq8kCYFDfg0M1jCRLz0cD0k91vgPR6d4b0yTkdIULcOSwLrkWkiiguYJWaRaUI/ND/o8RFtsR/5fEkMY9kqPU5a4VsOxtzJRI+wg0n6jTFNrznzvTR/b0h0e5dJyna54rqcbFwArEe3FeHJlMLhldYRqDGDi0PvTj7c+ScwING9J5vj0mb2B2dURk4yPHJgCjN3BP74r62RUYrTvWdIiNwTOtmuqi/vDxLUhXjLvkKGfCNsIgVRItkaDAcpKX8F89Lqy6eD6Pss7CcT5in2g2k4uvEIj5gAW99XfVYr13qArryhCIh9CnjszAYL2GV+hHTQ5/5NvnEY///cLkc0sh0sBe3ULsMbexNeENK/kc0U9V2TN8ZF4SvIbRsgd52QRLAOeFo3w+ZZLzbEtPDi+YGCWOmgh42eGx/CX0Y2CT9/aYnt8SOLnIvphUJ13eggiQqG6ZKFu0J9p+8MjJpVp55Kyd4yLUy8xNYGXgNdZ0LKtWTLoxdg3zWRj4gO8cDHhDZiDEOw788t1l4+2hn+vnVjz3rJjENQ/TfXeMs+Dei/nbQ9PBG2ykZmqUVkEfysP4BA3U9h91qYyQ0kpoXuVd+SSUIyLKmykaQ+vIk+q59H/S9oWgSaRC05pOW4yHHweU3w9DlV4T/O9WtdzZIrXt5NUcJpNZwMTajiCTDVr1hX+5/dkUDLprbIjuqw1kJTwzteC7gHyPXL5wqmhf821tTdNRFhs6S9QzJX87YOR2FkR9CbCmpVNIgQgZPic6muw9iXFwlABJsu9omx5Y8IclsCK7zpf5jvifpuNHn2ZNCrpLW+4FfxHdYhPn8I6mSUrG98bOT+yuKwQZMMrowLOsU42JQnZLIhU51LcXFEV9wa8Dc28LG5jg8G+FiSANT3ch1XXk8vELoX8j7IwFvMe399c5AHGXstnEgb/ufHuuOk7/rGoewH2lMyaFLuWQQRj7W6RtH5CWswAmixH6Eyvk92UytjkOEc0tX1dA8lHXJdqF2W0YteNHLBeiQtxnigDzR9RB5+KzTNqPYPoufKvHfp2Qbu5IVMecCJ9pnchwJL0IJr8t5aMBkBWb9Nn98WuBr12I3ASpIsBroD89F0IqcSx5JICja9p0S/R4Q6xIIzRQ6g2eAIaevWg5131wfuU5tCt0nPnmxLlvZmyoRqSF6jN4deps2W6hoYVj/o6QkLb4yoiAAcElJmkKoUjBxb5FiUdl4LJ0B1fHJK68joxHZqf98YrvfhtzA0nZJsP+Qljgtv7xbAcqY0YMsyQiQVnNlM+3d99KG7+DOQAjRps6JzEf+3Ea3l2sJh87XFtVEoyxyo3UeQyiSPmJT8N5JcrIxDwdCQnp+XKuG01vo1szq5TodULAW9eochyQ4OnEdxD0eSlCb3DX0uqNNbggEeZoUOOgdhR9NJ0pL7jSQtGhPe9RtBUz+r1XqHNHXNXnSodjRU6xCtC+p27QeHuw6xoCG4Eu1dkOay5ilW151qo6a9ngzCEHkfMGpnCU8XvBIdHRfkM0blitauh2UitTknSurNSKIeW58niqTC8Tv1awyvXEr2s/eSpYpXEXR4KL+yPlCeLNNOJUYik6vluZJOGOXJ+5dLvEzc9FRRAWWoRbiaNPzC7nc6Nr3ZLpH2PiY5IZmNK2sDthyfJKazVweXwZguTBNm5o66ZItgn6RQvqQHpKSLp1ZrZ8l1CoYBxvNKJ1tvqDHbM10kFTGc18l2kmQa4h7B5okMDMv2x3Fl7hFdvFU7Xm6tU1hKvRJ/KvqIeaGw4oI4TxzogLfbkgcXXtVLofqeYjbA+0Kqgh6hN2DshzPFharTvtDO3huq3sd4IZThuVptYQxVPicmtTkvL7p0c2fFHZcFwkdRRLvchCQVwZV6ZS42rWSEUvswvN2Sbyh49MDY6t0039WFupsDyhIjttOBI76H1PVeTfgP9Z2Lm74AjOQNcU4sjcfYUKDz4hZOyw+FJZpw0ug2zr9R2pDBLGGUxaY/1+r1Kc6LY1LELCK6zWRQzGx0Cn5E/f6zYOxdvSDoaEFXSy+f2OgwEiMmbliqUSmkZMJ25VmzAZzWjOyF8/Fgrc+Mmj1ng1F+NraZ/k+5H2idCGc4GkZ3IzC2vrHBMGuXd29eCk95TrF0fypRHzC/7GjPrKnxUWnxtAdCHp4iz6E8ROhKkfdtMK1H0l6c4gTY175C6Eu/DBL81XThFtnSku66rBhXJaqRUrCZcSCgbWBzR4PUxbuileNB2uB0mKUuirwn72N9C6SSzqIMc44HKq4aUfKphgIjGSPyD2PTyYcCdP4zg41gmVKSHBAHJIIppbiOOv29LA+Q/ESDcUmpCEbYGnKP46cUzTQ60g/9jc9O9JP4O6S+w8EAfgM7zm1nVviWnbEy/DYkLcH8pHQhygFBOhjbMnIvmH7KIMwfAuHuUJ/ieloOLFa+gcr3eo7rVK5r45gow0yEqgVpZ+aO0FW5jpvJ9Yd5tKVxua+4uFJzpJWayZ6J+DVPXGgDQo/GHezK2jOZCd2FcG62XkXdqNsudmREKaon6jaXhR7jtC0udwa86+E5NiQmqGVnlaivJ4u8N88VTjQ2ZUkIUlKOTndpuV1b3rNI3bEgqJQYao0/TPab/6SjM93Yqb5HJ2wvXEQGU4e3p2W2Y6W6bobP87sZy4Kb4r83a71JfqcIbclQEXkipCyKrI554IhpDW/k+1e6CqjvbA8OURxRgU8yu5va2W7NxxsSL70dcOxMm1SrCImP7hlCbq6AeWHkviqp7dZQNCDBfFobsZWmu4fAZSjhQkKrfJnDs/psF4dzWbpr8/x9xCxM5HnseofLShxBYb4aUZZYHtiQaL/VIOUs8NY9FmqpYFpGKAPSKGZsC1+WDiibDhe3aYVWxdrE81ADbHG6ub6sC/aCdCCYFon/UUeCXXlue+i6dNdm8z2pUWCoe8pBYxB0xrZil7A0ncRASHMUzGjhh4o5Jgt8NKtDwnjcMjB6anvPJfURQmrms7t0Q4IQ7yCo3cd6bHlLk7moxP6UjPCOjq8qKwPhjpYASnIS5ShC4jwSElF3korg1WtTX2WPRjYU+gYBZhMG8E6ZdiOnBC5XxAW1QiNBOAjlve7rI2L1mco3YVkxrjYOdRMF0RhER0uTXJRv4mg8RMyPpvKwcQCBarwdh1MV1frmhCheQekxUpXK1MYl5+zuUtKmZDywRZ9M6kackEdxVlXaRdjMWT8MqdYHhn4CHAfC0Cjp7OVWP87xHhiGVeGhEmFK0c9kQYfmuRK9qeYgSDqPGFZf3bduYUelr5VyzZv0SCtKWzHHJsGQ/3W6eK9M1o9mJhvoBWyoXLATwgySVlUzz0EljaAW30y1qZCjuA2xZku6rYx8g59FCFLdSCWdKNIfYSwjKdp+L/qQQ5jw8NfrDMGeb4LczuZx+wz36Mgix3eZrD1P5wqJK+HYJ8b5rFTFw+zaip7FajXUoqaS6DHbtHF4QGfms/VUrLrCJaJrTwwOIdFA1aAE68mbAjdjfqPGUyKChzrJRY3o5ZiZJF3wqWQCci7xCbUU6t7s+tQ92HT6910VOQ6p8XsfYLovb0HajqIQrXk5qHfkuWsCT8jocUEn3ronlzrQryOnw9h08sFIpm0newEke/PCvV4DaXU1GoO8f1ap4+VuLue3VglEV6cO8AyIxciuQZAoV5BUg39RPAMxbXrx0oNuftjpIvmTCIY8j7631VB99FiZanni4rpwH/z+ZjoUSZKavMl3R9my8F8V1SkS/T2OvXnOOlUvqvCrJ8/aqpysbPI/QuopQnjuosT63WHFLdco5wO2Mjk5KQlrvaHOZF82d1ICQ5+3r9TbBKL2CZNKBkRWjItCHuCOvRbdWl4SUfNEPt5W563yfogbenimKT6pNsmLmwOjlJhTy3gwRNZ99ArUMr8FzG1SqpAIynbH2/DOEVuVu+kaKxKXDGGQXYKQTvRl32JXysRrYiJdKrxzPS6PoGmvOTAvQjJGA5dx+cIFDW8fR8PbbuZwlJHNI08Bh4wCGJPgHrcR6SXR1Rb6Gc0y7jCf69VUqi5LjENtYlN3zt6pX0JR6GbmRRLWs53tg/p4nO+STSrTdj47g/pBkjET86SxX/C5Lp66OHCxqHSQ6iBml+p7+R01TYk5l2QEvFRn0cSkQzqmRcGmkKS+oPQwQoFwMqf9iOvJUUOHrMqAX2kusqlNWuofhudnCFTFL4WhKnbEzCH1qopbgkpnM7MjBtbJEUlryki3pl/a91kxLlrkhU0dM3puDz5Kxmj6mzZWRdjT5oq1gemI8xqSa9UCipxHqZLrza3FzG8ZGX9z308+qiufMugVxesmTdruHYtNZshDiWrMXn9jM0alrfTpRG9VBy+uCCHdItbLkehFcOQmuP/bGBIeHryPq4P9MGLOdmVEeT+AtJ+rSQqVKTNE5+gy18RJue++OMZFD3Mnp2iWUW9WP9SXt2ct9W8011+jQOE/r/O+g/voTqxca4XMWOkUcar0RgoGFqsIYmUMq+dIxhhThylVJeUBia+kd4X3M8G0YvveSPuB1DukcfjDk4pt7x5ZbJvn1HVfQFUdS2sDvagz+9Rd6sXEMImBDdoQmDHu4Mi4OO+84HNwD9ZzAJfGUZNEzOaLe+QMBtJWXLGKRYbn6b8oGxctjqQuBAEeZ65cEEv8vQD1Yj7BZj4oQxDiTkfQ53lgCEbAIkW9U3VUJNB+bfZkTKrSrkY6zbGp5qLida8f4jqB6IyTCEw2OrFhTZlqUkWc1lYZDnf9olRjE3NFNPhLRvY7SYJgIs+3tw08TfGtMujERntyh55T4w5iAFAzXhyzwzmapFx5eIMRBXRehTpkWcc1pblPaQsJwkO3CQnnl1KVDiNhl15k8CVO3BiYmOU+MJhoYs/LRJtbvv4mOpFjJ+LNUh3jKn0PY13iHOOFh71zqcc3Y3kX+xGIg+oPG959iLCfh3ixr/H5BQWEkjOCqqTMPlj5I1ToKsrmGLfFPk7GYpn2dDr1a6/vi1zu/dYN3YoWk+X9r/eyrCUuGhWqyTrkbp3ab1XoQ/kwUeIvmp/2bLXUv5kSUnHj/pcN4Sh5fJO55DEZUS8qcb5wRFHw6zk/BhbqbogcsfibCT8HSNg4JdU8sLv9AJWyIxJHK5Cm5JLdg8wMUPZNlG3PZrdT/zComeuV+mh/cUfgWsTTRDtn03bCI45o/vGY72vUnXp+7g5lPHXSJjrn7FZ6gMEel03xOHioToD0OR+0O8yNcEUsVKn/nmGlHuqUk48j6yh5JJy/BCP0iFl+e28padIn1PnRWPdsrDtldHwywqF41wqPH+CVDAKS7GZUkKVcWIrtom8JdWnjMtuvEh/uVDYwsy1MjHVIkX1lqgq65ClEUYGhbpdJNYSUhRQbRKt7Hkl3E2KmAkoh+/fEzb7x47dpt5lryhEOCPitN78DuOyi8teULC6PqjQ5hfnYGKnG2F8SV17WRB4Tmfgbl8iMZE8k0N4N+069BsdEIihFhDr3mMeCtGFoQug8My8uuRMJq2CSfdMtBnQ0hqr1D5G8TYnKMpmaPilRGv9HJ58XrHQqEUbihCRw+ptUCaJDJN1iDQkJ4c+mo9H8PUl0FMhpHsdIpAW9wOTJTMZLdy7u1RNJkqw/Sned/B5rPkomUcvEX/pE8vBWCt+wOg6dB4fHiXIsuWZq35bJGPk+F3i/FLfvkIgPmrJOQkf1kX9kmtQO5nmYTIiWz4dIdt4PB3XgStLlp7CTrM04IV9r0pvt9AvNjRBk4TbUGroD1RNrkXN2plVs524P/J5CIAwxFJ49RNA/Lq9HhPC1Mppe/A/xQ39ZH3g13fikNqLX4l9JZJ/XWek1u23w9480C96KYn3DP+qs99lypLMEIv1QK5U4oTI8JEtHi3nx/kdZ6lHUUIP+pKTbgY2U7+l3GY4BtfZyKyo0MSxUgR0OKatmxHbnPR70X5TjCLUIKtnY0sDESe08V6dbcx6+T6e6GFNgzUsgfYwhqdXslaR0H5TkqTcZPpFOhCrEqb607u/84ZPzXDjRMjyUaP9urX4xXWB0ooLkc3tbW6Z+B2POS1o4n5ZGfCn9IwC1WX1EoVa80flcXoN4vu77qxPU/lIVs4rjSgYsNZFAhvmJyCz30UNsVAalGZDBPqDS9g5KZVTDm3JBfdUWaOx/1ahXmo3ypzlCi2BrMqKC8YB8d0+LyAPmvECoUa0gTd1uZSeSyE6JvVBvXh3V2nk/GO/TVLLZQja8GB6qz8mTquxDRYXHmBJSrnnDV1IXG9NxU2vbaNmaTPwbdg10706p0tLmQ4mRy8Cw6lC6+inYUoQ+IO1v4hO2OrwkzkHUeU42sxQ4JWNSaW1c5rFgz7kXVUIWmTc0YYRwmTHArbeV+0PntFG1rWgAHG8zC9ttyJM93OoY+TwPjTgaI64sLjcPNdtDR1gITk5FB7yK1aTsyvxNOg9Y1Wuvwh6tRf0ywbzk3oO5oiial7vPD1GxY38ceWNcRDyYy1efHu7uONgTmB/XwgvfUYVUPIhNBlXaXsWDWUUNH6BWNU1cNFVenFOrCGO7MPTisbmgVNtLJbqqjfteiqQ2DqwE3raJUFcOaWggJ6BEc1x1UwS5opfjhYme1D4eGwJXg3ucAqDxvV3hgYn0Ub4fVMJb4GLfPeQn53NUklgybiGtkZIFqRMM4ZPKIx3tGqr9GkGeBLuMGBddLxKn4aSIy6WDN/D6zcrryZr6Jrtf5Py5qKk6Ka7iBjyVr+4IXtbQ9zfZ+OiS05TCEIghS5oQo/Zljt7zOBsz4QWvYtoS1rDzTY+TdKJ5ln/eD7gI/pEgde0TVpZXxkWLoIoOqAXUF1LBBcLjGKunJYJG6UD9aTCwRqhR/zQijatgN3gMamQ/MDHhhn53Z+hsWT9LbBDcx/7N7G8n3hSoZNtQkeLGuGaruIG3bAjlISog9RaAxPgnMNZjzDcMFV/fBzN5I/GqWE2xe8nzJ28uXOKXkn0MP82hDl4JO8EPrRYHN0ElvE/UCpehGLHBSMqCF0qZ3U4fPKez6xQramwOGzgZ47JUGdQ8JyVOjy1R4pgOMWCojC3RC/N6q/ShE86/hCE6dghj/3b1ZivqttU5MjoPEjPRIOuu4dqcHlIEoBaL5jhUzRbI0ydUxebpaEK3omlGnBhOFnmWu2xXULpRumsb4vv9IXXlnXFJYPAgv0a2JOSl3SJqHyXORAX0oUKiYcU1qPH+YcniwC4yjN+3Nfx387mogPANVMN1yQBHR5JJA4tCX5mZyJxa7XdgLuc1xA2iYnhoRvC87GQk5kVtqMkdHENTzYdNNl22phI3GGtGHNAirHcH1MGpc4POo93kIcURF9lP5XEwNvC7EZ2BHFBrZzfEmhLGTMa4LNu4zGOhmcjtMBvsJa2hRPH9eMBEjmW64/gix0KoRbvj1E7EQKGw4KPprs339yU2FWpdlIlKMwjZlnK0uZGIFXfvsQfSdmDH87ASVTK+lLjIApt4aT9FOZ75Xns942mSBmHTjAbT5sTMrdLeoIskWxJsHg9sOcLeemzjwMNSAtuLOGoqAWkJ3XYupXrX5u9buPW1lA+WzPhI6sT97eyXG28fekxEj8PIayTRWAXB6nm3bfBNNTOtmEH+BpIyzWPQ5iF6Kb4MNbJOTgwyxBrLqG68jOaPi1OiHnyQVMGwRu04ytWEYoDyWYQwzVrzxrgoBeWJ9s7TqDGDPCTjvmx9mAJT03Ynovt7c6lyjVm6oLGm1tgGwRYoDOW5HLhH5AQZYWUMNE/dBZtW2GyPgs3LBZtbFyvXJzsHNq4gCuPH42Pxwb++je02WQVXOn+QTdH3iQwk2kSa4MntjR4Kq2JpVVaWZdi4ZCHBsGqud2VliOzOaVDGJUmiBxvNHG7Eg1gKD94IvIl3m72ChqiZxJoyo85zYdni0CZqQw+16oubV1dPhj3o2tc315z5fXXtoWV2bQNip+6S3azFWMhjvHl93T+zgyT5VVBnL5i6y3m+lIroTQOD/KaTnKHPQccReAAuhXNgPKTG2WjCWddocWB3j9XqIrRBe9xcblp4pMzOC5qO1o0HHMG1X6L/3CDg1BgMaxI1KsjnGrIcKyuJi+aKlTl+QQaI0v+Eyuh3tH9ok8h4SHtA0nwR0sXiODsKbF1DNugv457UW5m2vsGpRHL/1cEVl2xWJ4u+AWkOvDwiFzW2TU60uaEIgGXVN3EKlBW/Tkrb6eZP/P4Mj/2jwY0iIkZS4kv5kiO2qA8jhjDjvFgwrV5914TnIwazMzQCintsn44m3EtvnMQF6bGyLucqvOmmFd/vE7EuGSVU4/vVbeHLkcc3StQkgqRk1CE3XZDsf+Jrkkx01IIiURu5Z5RGIUEUzAWMYGyLyITfNHO8H/BHilCKZ2exHqlt4rTtwpvOa2oVbjyYMCfbYXdotCsQblqras7aQER0Kvk5rHcetkl/SnZSiQtcFRIF+D91LKYjyasgTgU0gwEDNnnOrm1mH3tmqW2W1brllu5sFichjmsyGsKOMKdA5doQlspnw+mwHQ4HIWFJ7CikY9HhajfYw75LRyo9RP1X+H+ktC2izSh3DBME6lA9hlLKd1qtGgFpotnDm31/Hb/DdqsRtQ6VHE6Pg2E/NEINktEEOtqi4sNPstOQWA9ouKd5eBzCbP6Wbh3ye5I2b6n0PYrwmKvMKUyEzWBX4GOqF29lLJKMwGTWks1YPidyr+EluBBOkqvS4Uv3B8nit8CxNVZ2+hFjRDFpC0wSarHtoQwv6degJZ2XsF/eRPbAXg4oFJ1sj07Wecvu2G+My3QTXWijfjy8IkNh76q/0QZ4Fb1VzI0n5cNgvtEGoyBJJmIS4yi5NvGQCbemxFvjFJJ6ZQVV/CrHTcaI0v0v8Xts0LfGl9lH729mZYaDOlnfv9tpNN6lBylXxkXjw+Y4FN7k6R7HHq5OY+Phmv9aJ+dJVvoU4EXXFW24vjO/oMwNNyiGDk6c1ztBAifpyLwuUttRZ6tT7EWJMkl7WnmJ/YOXD6T228F8/pGOYQCjBxCbOFp4emMHOVBGNvZNAwO9LV0dfEh3JyPmcA552Olys2E7hvf7ePDPSEeH/B64HAlcliSuSTLVwUX6x4Oaq08dU2z7qpVd24G3h78OAeE/esOHfFod+h1qe41CKFFj83roWnIIofZ8U6xnVypaoGHcM2aX+7bEl8nYkvDE6w5yPYL2bKGVdcFDpm4P3/5JnX7BUthqca/z0nthvzMuCQqFQZQtCa0mG5LckOITzTSFkx4BqcmKApqlLMnEzEzC/DZIvAGJzETeAKkOJGb9mxlXMoYZNz5JhBGSCHUFZUc+eT/kOFkadWNv1g/wZj3N6gbdF+fhoXwcEtdfrLxBM6UHav53aFjaNfF+TCkNjLZSn4vmo5LQUGc+TfqQ0h6BBxJ2qCqEKSz3BiKNSlzalnURtWyBT4nGfsU6RMVJzH6k7LRRRpFqbmVNYIJOqJg/wkPafq+qELBNjmyqP0910ToU2b4vtqu7akN6k3V14SOWB9RuM2vCFyH/FoKHpngx77gy7ZFxm/RR5trx57m8GTEuohl9PE/ssyqyMJlGICvHGoU/Tb0g4+y1kgmTCQQa4Hvl7qOR/7q6Pkxgw+3ZY7X+hZQaDWk6di/EtVSRgxowQ7tY2Fk9FalfH1nBOd05BcO4qOceglRfMRKWsdDKo+ztm6nazqV1wSNX1kWOws3v+q1f+Q1V/kTQXXF0M8ZsvAkqWuKbLBGIVCpoMqlKjiWrUwibFM1Hn2F6gcRe8NgUVzQOzzrcoS07usi24NBiWwUkgJ9EWMRG7//h7TTeYJZ4yHYf6Wi0n+ooJd0XlPIDxnV1AuN6AxJAzl5aUVttaXCtWc0SzB8P8KJy2zFQaSyVZqFQCPIqkoE+GSOSCzMzp2SLFTZKzI7ONqdkmkdJjp/L1gTeBSM+0bzPzHPHlbVJYJrkfEGnod8hO+BHvKx/ND/4kMSzeqEBl5bXrQu+hM4/pyc20TAz2PoYAkmeqG4x57EOnstlBkg6BoL0u/dR3vs080s/1XzDi3yzke0xON2YVr7PKcnaygRWz1lYq6PLsGZIW7D91JVprg2x66m7b1yHX6p+ujEYaV3pDbaDDartOp9Svikcaf990NYbJZTLvODygklAjDdioxDEGWUymuJLJCzmDPGS3Qyb2mvDxXhDy9IxQrKDyxebfdeZjdW3mqFmeRen/nWbYvuKNg77Fojh28jO8kyKBYORfatUYVypcuK81bvqOuHD0gNrFcccz4sGFFLklmTMyXstZjwNJeRTTuuwjUiIpzewPBCYetEa79uQZDqBiadVI2Ie3MF40Z03erN3Nsp6O8y2mVSEmW1r6HMZvqtUG45yPc/2yHglihKzp/WAk+imEZuVB+V6JBMTD26s/I7xsiNcYTeCRPY0VMoxpFLCQdBW7DWT+wO/11udIhW5scYxZwCXAcDlFbzYnYSLoClW6z/ZtWJuqh2Gl+60turVw0qLnkqVZJ7sejC5P2yr8H02N+w+2oNnRs4X1xiF4jHBFJs1UVLayzK9DQUjcUGVWIQ32LHSOwjuPAXcOat67ZBuJo7Zbr/dHN1Om+mNdpGzm0Uim0OaqFVKj6a4rTFuJhJq8GMvsdv0GTWRP4/bbL/OHBBKTOtr9JyjnMdMgab643i7bqQwCKmKvtk6eE4DRsFnSiKpYn0W1UV+49aU3T70PyFcOjjUFaAxbUVQq5OBeZEXjrBWMYcHc9Xi031uI206dKiM+yRCXTn+w+rwef/x2v4MlbAsWmRvD9eVhfp6erSfEHE+7aSm9ndOKLIvSLSDWaU/8Tzc19LXt4eGvlOj/GFOnd7XCH2JVW+l+Yc0ivwXNbreG9DCMRPq12bzGGB+lG9KFjMSIjTgvZZiILOlh65DOI76RV3ouHerIoOhnv4FpZ6b7GFee7CBcLD75CL1jTOa2F45u6njHSq8mc28cDbYEVg8Cr1W/w8MMxrORE4zCvXAcze8if7vy0vtk5FmJ7ygv5pDpIHEWqOL7HtUa6CUoFwWCBH2g7g29dFM/r2i25PNQbmIVJlAZu6LcfC31cDJZGOKwEBzNQmsEQz2rlzWyNfGI4B95IAkXkJpX1RCiBrk0t9WYsbygSXZvzBnZ8zdDSEyXTF3s3R5ufmYN90YRBcYbAvQ1RV0HQ0a20PdFc6BfB+0ZuqxgLm6w5NYtq+wz/c6LI0HUNvJMjaiVAdKtlhtzplqAll2Jq7MDpgFSomMr48oyhuUDMa4FvTgzZhzzzpIld8YzBS0IN2JakvxwQgwAhkisE8CUNPRtNEbLiMR2whUhJ2p1KllrDaY5yEbwvxDtFMpXoj0bvqhUIrxW7X/gzR3WSqpaNja4FvknTEfSCtaCK/Tg+nWke77uNrgQB46695dX9INwt8zAoxAsnDJfY/KuqByaFxaDOwCZOzOlRI0avhoWtvIzZTkTIcIR0Btq2EbteeSSXQ3VvpegJ3tOGFgpFxBMpfAA/R8J2fWEdrmNZS7tUXmv1Ff6rhftSid6w3k6xmBFAgUhMS1Jah3MAI9QWi5PbINsQ5pk02t3FXU2npwZNPADHNNeTLaIx7oC3OfO0hho1Fj6xIZrkDSGeWCLS93HGnVNZyOnlYOdZ2MnJDnUhHedNfx94wAIxCPQEEwrp9D6KEXc3YQ41C9fn8+E4vvL3NfjlpWX8YxDaiDSCNZRGWiKQ8RUtgDxNCMjPsAuYcjVyOyPW9tzVs44VFC3Jd0m8Pb0xqO6LTJxrxpGQFGIB6BgnjbV4WUaEcgMC9iHGUe97rlebxTFAAKY/3ZyOtaU6EjvSEW31WheVq0X6lv9FG1EmofHwsOofyzsc31ByCt5dt4LnTWuIThPK6Th2IEDhQECkLigpG6oxlwj1PLi5poHpOM9WhT1odsViIYMZZrJmsZSYZCKiXyu/6Haha35HsToM9ehBLCzUcIMTD5nofHYwR+7QgUBOMCyELWMaVPNEhgLNS+xfA09pNNPeR80utINECl/OyFjk7LSa6ZbBBVQ6hHQrkiSkTNZAw+lxFgBPKUzpErkE1tERH6IFUoJMhG8xAb4ICn8eNprfUbpb1Lqo1ibuQPTu7k+BPVEW+ISpJ+XROlTpPltzXAUnlIRuBXi0BBSFx4kONUw0qvL6cu2PXdLWTS90BtLbQWi55lVhspN3Hw6tDrFGlspdRKprtiWyDSlup2SQYN7+lOypvPdBw+nxE40BEoCMaF+KavzTdC97hcDSHxoC7UpX1W6gsowNTU8CDOWI7qnMeg8N0KpC0cmu/NsTFWXkVKXM0c9hp0Jvbmex4ejxH4tSNQEIwLiaU/mEMVECZQVq0o0WTNPB3IC5wwaIP6gqxBZK65FddJBkZ7FHnr0KUi+COKvv0mT9OLYb7zB3uaQ347aHpFQ0h2+aSZx2IEChGBgmBcZR4ULEOlUsP2g1LO6wMo+ZGHg0rTIrn64zE7nHfG9ULE2Kj2EFx5qN75vc7a72QNfKMwIUpB91ulf5prsrdcArWgn+dVz5HqKTHqLk7l2zwskYdgBA44BAqCcbV3Uvux4B6VDXagr3eHLXc9TnXXkKHeA2rfull+5ymybLA0xp+m+FaheW071Ilag8YDb390qG0AhUrEVehEbNewjcrTqK39TK7Z9D8Ewseh5Ecc3scUq18ecDuOF8wI/JoQQBmaT8xlZHquCqzIdn1UGQLdgJ6kihOyGoO50gMY0avJOiqv0yOHGKVnUL0hrrIEStIgwv6sbGlCJYgX48rkgDZRFYMPRoAR+OUiAJXsOqrDZTzcPwR1qqWd6YqoBLRgPrGx4mpyYUyUp6m3dRM1fUX5mS+ptE4c46KaXPgfGOxsMJyMvJ6yVA6NJ8dE/7qsGXOmmPD5jAAj0EAICOkjoXhf+fK6LbBRUYuweg+SnsCwBkJK2yTHIIblXoEylLHChMTMYGw/Nd1Y9D3Zo2DMf0gBo5PjGEyMGOKSgI767P+ggmlWxoO09VwcI8W48HBeZOVaPocRYAQKHAE84C9JiUswHTAJSCYLwCCiXVpMBzErKttLTViFhBVjMmYJSzAb/B/jTqNmApkuH6VvTjVLb1JiEuMSA4O6B8P/22CaZ0JS28sLSo4BzP2MpM0kbS1viHCPTNfH5zMCv1QEGiS1JlswqPEnOsGsSyzkJ7o8N1IWohDfcnj9GtdEdM+M3dpZspEszWd0z5G/U1XziF/5qLP9DHRUfj9bmsAg3RM3+x5AAcIRSqwBgpyPPqPNBqjBRkTpWaxu7OoIf97Gpv20Ihgun1FjO5O6EFGJHKMDMs6df6jeGxH8X2RLE1/HCBzoCBQU46KbAell0IAN6iwZupDYhy/ZDTMzLREPBoZ1T4l+91Vt3A/lq5YWpK+Tbtqsv7qgTm1hhFXINmUJjNNMYxz9YFpjW4TuHd/GM+ZA33i8fkYgFwQKjnHFmNfgARv0mXFtrEySlKzsYLTRoov2MKwJV7R2TUa7pi25AJPqWmJgj2yJTJi1WzklKX1UecKEqkEjMa2SyH2oOnFbQ9DFYzICjEABIIDW4sfDvrVUGNsTQxOkwZ2+g50JXsAFMHYPIZvSviId9B0H+9ULUftalMbErkLR7kBBHU6GACTJc/cVbTwPI/BrR6AgJS4z6DDAn4i+eReuCimHoW4XNVDVW9sjq8mOhADOz3s3sc1DEOlP++tGEbP8ri50LPoR9lnkjfQiGrfoajuk8yxDZPyiHsXq3N82dbyHnnV79aDdXzTzvIwAI8AI7IUANeRkWBgBRoARYAQYAUaAEWAEGAFGgBFgBBgBRoARYAQYAUaAEWAEGAFGgBFgBBgBRoARYAQYAUaAEWAEGAFGgBFgBBgBRoARYAQYAUaAEWAEGAFGgBFgBBgBRoARYAQYAUaAEWAEGAFGgBFgBBgBRoARYAQYAUaAEWAEGAFGgBFgBBgBRoARYAQYAUaAEWAEGAFGgBFgBBgBRoARYAQYAUaAEWAEGAFGgBFgBBgBRoARYAQYAUaAEWAEGAFGgBFgBBgBRoARYAQYAUaAEWAEGAFGgBFgBBgBRoARYAQYAUaAEWAEGAFGgBFgBBgBRoARYAQYAUaAEWAEGAFGgBFgBBgBRoARYAQYAUaAEWAEGAFGgBFgBBgBRoARYAQYAUaAEWAEGAFGgBFgBBgBRoARYAQYAUaAEfhFI/D/HmaFWmmsnhEAAAAASUVORK5CYII=;" vertex="1" parent="1">
          <mxGeometry x="500" y="211.5" width="211.58" height="117" as="geometry" />
        </mxCell>
      </root>
    </mxGraphModel>
  </diagram>
</mxfile>
